<svg xmlns="http://www.w3.org/2000/svg" viewBox="0 0 800 500" width="800" height="500">
  <defs>
    <linearGradient id="bg-grad-24" x1="0" y1="0" x2="1" y2="1">
      <stop offset="0%" stop-color="#937A54"/>
      <stop offset="100%" stop-color="#C4AD8A"/>
    </linearGradient>
  </defs>

  <!-- Background -->
  <rect width="800" height="500" rx="8" fill="url(#bg-grad-24)"/>

  <!-- Pattern decoration -->
  <circle cx="100" cy="100" r="8" fill="#0B2412" opacity="0.08"/>
      <circle cx="200" cy="100" r="6" fill="#0B2412" opacity="0.06"/>
      <circle cx="300" cy="100" r="8" fill="#0B2412" opacity="0.08"/>
      <circle cx="500" cy="100" r="6" fill="#0B2412" opacity="0.06"/>
      <circle cx="700" cy="100" r="8" fill="#0B2412" opacity="0.08"/>
      <circle cx="100" cy="250" r="6" fill="#0B2412" opacity="0.06"/>
      <circle cx="300" cy="250" r="8" fill="#0B2412" opacity="0.08"/>
      <circle cx="500" cy="250" r="6" fill="#0B2412" opacity="0.06"/>
      <circle cx="700" cy="250" r="8" fill="#0B2412" opacity="0.08"/>
      <circle cx="200" cy="400" r="8" fill="#0B2412" opacity="0.08"/>
      <circle cx="400" cy="400" r="6" fill="#0B2412" opacity="0.06"/>
      <circle cx="600" cy="400" r="8" fill="#0B2412" opacity="0.08"/>

  <!-- Article number label -->
  <text x="400" y="235" text-anchor="middle" font-family="Georgia, 'Times New Roman', serif" font-size="72" font-weight="400" fill="#0B2412" letter-spacing="4" opacity="0.15">24</text>

  <!-- Decorative line -->
  <line x1="320" y1="260" x2="480" y2="260" stroke="#0B2412" stroke-width="1.5" opacity="0.3"/>

  <!-- "Article" label -->
  <text x="400" y="290" text-anchor="middle" font-family="Georgia, 'Times New Roman', serif" font-size="16" fill="#0B2412" letter-spacing="6" opacity="0.35">ARTICLE</text>

  <!-- Bottom accent bar -->
  <rect x="0" y="488" width="800" height="12" rx="0 0 8 8" fill="#0B2412" opacity="0.15"/>
</svg>
