<svg xmlns="http://www.w3.org/2000/svg" viewBox="0 0 800 500" width="800" height="500">
  <defs>
    <linearGradient id="bg-grad-5" x1="0" y1="0" x2="1" y2="1">
      <stop offset="0%" stop-color="#133D1F"/>
      <stop offset="100%" stop-color="#143A20"/>
    </linearGradient>
  </defs>

  <!-- Background -->
  <rect width="800" height="500" rx="8" fill="url(#bg-grad-5)"/>

  <!-- Pattern decoration -->
  <path d="M0,350 Q200,300 400,350 Q600,400 800,350" fill="none" stroke="#937A54" stroke-width="2" opacity="0.1"/>
      <path d="M0,380 Q200,330 400,380 Q600,430 800,380" fill="none" stroke="#937A54" stroke-width="1.5" opacity="0.08"/>
      <path d="M0,410 Q200,360 400,410 Q600,460 800,410" fill="none" stroke="#937A54" stroke-width="1" opacity="0.06"/>
      <path d="M0,150 Q200,100 400,150 Q600,200 800,150" fill="none" stroke="#937A54" stroke-width="1" opacity="0.05"/>

  <!-- Article number label -->
  <text x="400" y="235" text-anchor="middle" font-family="Georgia, 'Times New Roman', serif" font-size="72" font-weight="400" fill="#FFFDF7" letter-spacing="4" opacity="0.15">5</text>

  <!-- Decorative line -->
  <line x1="320" y1="260" x2="480" y2="260" stroke="#937A54" stroke-width="1.5" opacity="0.3"/>

  <!-- "Article" label -->
  <text x="400" y="290" text-anchor="middle" font-family="Georgia, 'Times New Roman', serif" font-size="16" fill="#FFFDF7" letter-spacing="6" opacity="0.35">ARTICLE</text>

  <!-- Bottom accent bar -->
  <rect x="0" y="488" width="800" height="12" rx="0 0 8 8" fill="#937A54" opacity="0.15"/>
</svg>
